<?xml version="1.0" standalone="no"?>
<!DOCTYPE svg PUBLIC "-//W3C//DTD SVG 20010904//EN"
 "http://www.w3.org/TR/2001/REC-SVG-20010904/DTD/svg10.dtd">
<svg version="1.0" xmlns="http://www.w3.org/2000/svg"
 width="512.000000pt" height="512.000000pt" viewBox="0 0 512.000000 512.000000"
 preserveAspectRatio="xMidYMid meet">

<g transform="translate(0.000000,512.000000) scale(0.100000,-0.100000)"
fill="#000000" stroke="none">
<path d="M1974 4968 c40 -147 50 -229 50 -403 0 -162 -3 -190 -26 -277 -55
-202 -150 -359 -403 -664 -244 -293 -325 -411 -397 -578 -121 -277 -140 -586
-59 -956 24 -109 27 -180 8 -180 -18 0 -58 44 -176 193 -195 245 -332 357
-439 357 -19 0 -23 -4 -17 -18 63 -152 102 -360 145 -779 42 -413 76 -566 160
-733 147 -291 422 -492 885 -644 93 -31 330 -96 350 -96 3 0 -22 33 -55 73
-178 210 -236 361 -195 503 9 32 41 114 71 182 81 183 99 264 98 447 -1 92 -7
179 -17 225 -8 41 -14 77 -12 78 5 6 141 -84 225 -148 97 -75 208 -190 254
-262 60 -95 86 -189 86 -312 0 -58 4 -106 8 -106 20 0 101 61 138 103 51 58
69 116 61 200 -9 94 -46 189 -179 457 -197 400 -254 570 -265 794 l-6 119 83
-62 c161 -117 296 -236 475 -415 267 -268 427 -478 541 -711 273 -562 93 -961
-536 -1190 l-95 -34 68 -1 c142 -1 372 36 535 85 499 149 891 469 1101 899
266 543 219 1195 -137 1880 -116 223 -332 544 -480 712 l-43 49 27 -55 c85
-174 155 -390 169 -521 17 -160 -50 -277 -169 -294 -62 -10 -114 8 -181 63
-87 69 -150 152 -210 277 -65 135 -86 197 -170 504 -36 133 -82 287 -101 344
-142 410 -356 651 -711 799 -96 40 -315 100 -412 112 -52 7 -53 7 -47 -16z"/>
</g>
</svg>
