<?xml version="1.0" standalone="no"?>
<!DOCTYPE svg PUBLIC "-//W3C//DTD SVG 20010904//EN"
 "http://www.w3.org/TR/2001/REC-SVG-20010904/DTD/svg10.dtd">
<svg version="1.0" xmlns="http://www.w3.org/2000/svg"
 width="512.000000pt" height="512.000000pt" viewBox="0 0 512.000000 512.000000"
 preserveAspectRatio="xMidYMid meet">

<g transform="translate(0.000000,512.000000) scale(0.100000,-0.100000)"
fill="#000000" stroke="none">
<path d="M1195 4599 c-110 -16 -228 -92 -291 -189 -27 -41 -527 -1197 -543
-1256 -16 -57 -13 -172 5 -235 56 -191 216 -361 406 -431 l58 -21 2 -821 3
-821 32 -66 c65 -132 189 -220 333 -239 100 -13 2620 -13 2720 0 144 19 268
107 333 239 l32 66 3 821 2 821 58 21 c190 70 350 240 406 431 18 63 21 178 5
235 -17 60 -517 1216 -544 1258 -65 99 -179 171 -300 188 -87 12 -2634 11
-2720 -1z m455 -254 c0 -9 -56 -275 -125 -593 -69 -317 -132 -622 -140 -677
-26 -170 -97 -274 -233 -338 -61 -29 -76 -32 -162 -32 -86 0 -101 3 -162 32
-90 42 -150 100 -193 186 -61 121 -70 87 221 760 140 326 265 603 277 615 50
54 80 59 325 61 166 1 192 -1 192 -14z m778 -667 l-3 -683 -27 -58 c-34 -72
-65 -111 -130 -160 -104 -78 -252 -96 -381 -47 -77 29 -167 112 -206 191 -55
111 -57 94 94 793 74 346 138 633 141 637 3 5 120 9 260 9 l255 0 -3 -682z
m776 673 c3 -4 67 -291 142 -637 100 -465 134 -640 130 -670 -15 -112 -93
-231 -189 -287 -200 -118 -456 -40 -559 171 l-33 67 -3 682 -3 683 255 0 c140
0 257 -4 260 -9z m731 -13 c17 -9 40 -27 52 -40 12 -13 137 -289 278 -615 290
-673 281 -639 220 -760 -43 -86 -103 -144 -193 -186 -61 -29 -76 -32 -162 -32
-86 0 -101 3 -162 32 -130 61 -208 169 -229 318 -6 44 -69 349 -140 678 -71
328 -129 604 -129 613 0 14 24 16 218 12 177 -3 223 -7 247 -20z m-2359 -1693
c230 -229 575 -258 839 -70 35 25 82 66 104 92 l41 48 41 -48 c49 -57 147
-128 220 -161 246 -108 532 -53 722 139 l63 64 76 -74 c86 -82 200 -146 299
-167 l59 -12 0 -787 0 -786 -22 -33 c-42 -61 -101 -89 -190 -90 l-37 0 -3 438
c-4 387 -6 443 -22 492 -62 191 -211 336 -396 385 -71 19 -210 19 -283 0 -176
-46 -326 -186 -391 -364 -20 -52 -21 -84 -26 -501 l-5 -445 -685 -3 c-377 -2
-708 0 -737 3 -60 7 -108 36 -140 84 l-23 34 0 786 0 787 59 12 c101 21 213
84 294 166 40 40 73 73 75 74 2 1 32 -27 68 -63z m1789 -832 c56 -29 128 -109
151 -168 18 -46 19 -80 19 -465 l0 -415 -308 -3 -308 -2 3 432 c3 427 3 434
26 475 35 67 79 110 145 143 58 30 68 31 147 28 60 -3 97 -10 125 -25z"/>
<path d="M1741 2274 c-86 -23 -171 -73 -242 -144 -212 -209 -219 -547 -16
-767 166 -178 441 -228 657 -118 118 60 228 187 272 313 33 96 33 268 0 364
-59 169 -208 307 -383 353 -69 19 -218 18 -288 -1z m291 -267 c100 -58 158
-157 158 -267 0 -81 -24 -142 -81 -204 -64 -70 -127 -98 -222 -98 -60 0 -80 5
-136 34 -221 113 -222 421 -1 536 62 32 69 34 151 30 70 -3 94 -9 131 -31z"/>
</g>
</svg>
