<?xml version="1.0" standalone="no"?>
<!DOCTYPE svg PUBLIC "-//W3C//DTD SVG 20010904//EN"
 "http://www.w3.org/TR/2001/REC-SVG-20010904/DTD/svg10.dtd">
<svg version="1.0" xmlns="http://www.w3.org/2000/svg"
 width="512.000000pt" height="512.000000pt" viewBox="0 0 512.000000 512.000000"
 preserveAspectRatio="xMidYMid meet">

<g transform="translate(0.000000,512.000000) scale(0.100000,-0.100000)"
fill="#000000" stroke="none">
<path d="M2505 5095 l-25 -24 0 -271 0 -271 25 -24 c29 -30 74 -32 106 -6 24
19 24 20 27 282 3 281 0 308 -44 328 -38 17 -63 13 -89 -14z"/>
<path d="M1285 4778 c-29 -17 -44 -40 -45 -66 0 -12 59 -126 131 -251 131
-229 149 -251 200 -251 27 0 69 44 69 72 0 29 -242 455 -276 486 -28 24 -49
27 -79 10z"/>
<path d="M3763 4775 c-31 -22 -283 -458 -283 -490 0 -33 41 -75 74 -75 14 0
36 10 50 23 30 27 276 455 276 480 0 24 -53 77 -77 77 -10 0 -28 -7 -40 -15z"/>
<path d="M2415 4219 c-400 -34 -785 -220 -1064 -515 -529 -558 -606 -1404
-187 -2049 243 -373 622 -630 1071 -726 96 -21 137 -24 320 -24 183 0 225 3
325 24 340 70 603 213 851 460 247 247 386 503 461 851 19 90 22 135 23 320 0
237 -14 336 -77 525 -242 727 -960 1200 -1723 1134z m436 -178 c611 -123 1080
-600 1195 -1216 28 -148 25 -413 -5 -555 -63 -299 -200 -556 -406 -766 -460
-468 -1168 -586 -1748 -293 -429 216 -725 611 -813 1084 -26 138 -26 392 0
530 77 414 310 765 661 997 198 132 394 201 680 242 70 10 344 -4 436 -23z"/>
<path d="M2490 3458 c-17 -24 -92 -140 -168 -258 l-138 -215 -239 -62 c-132
-34 -265 -70 -295 -80 -61 -20 -87 -53 -77 -95 4 -14 62 -93 130 -174 67 -82
151 -184 186 -226 l64 -78 -18 -296 c-17 -292 -17 -297 3 -323 11 -16 31 -27
48 -29 19 -2 127 35 303 103 l272 105 257 -101 c291 -115 325 -123 361 -86
l23 26 -17 300 -17 301 98 121 c318 389 309 375 261 423 -24 24 -28 25 -372
114 l-219 57 -138 215 c-202 315 -190 300 -238 300 -36 0 -44 -4 -70 -42z
m206 -389 c71 -111 138 -207 149 -214 11 -7 121 -38 245 -70 124 -32 228 -61
232 -64 4 -4 -64 -94 -152 -201 -92 -112 -160 -203 -160 -215 1 -11 7 -126 15
-255 7 -129 13 -235 12 -236 -1 -1 -51 18 -112 42 -252 102 -355 136 -388 130
-18 -4 -126 -44 -242 -90 -115 -46 -211 -83 -212 -82 -1 1 5 113 13 250 12
213 12 252 0 270 -7 12 -79 102 -160 201 -80 98 -142 182 -138 185 4 4 108 33
232 65 124 32 232 62 241 66 9 5 76 103 150 218 73 115 136 208 140 205 4 -2
65 -94 135 -205z"/>
<path d="M362 3860 c-32 -30 -38 -67 -16 -97 24 -31 461 -283 492 -283 57 0
94 88 54 128 -31 31 -460 272 -485 272 -13 0 -33 -9 -45 -20z"/>
<path d="M4460 3749 c-124 -71 -231 -137 -237 -146 -33 -43 6 -123 59 -123 30
0 456 243 486 277 17 19 22 33 17 52 -9 38 -44 71 -74 70 -14 0 -127 -58 -251
-130z"/>
<path d="M25 2615 c-27 -26 -31 -51 -14 -89 20 -44 47 -47 328 -44 262 3 263
3 282 27 28 35 25 85 -7 110 -26 20 -39 21 -296 21 l-269 0 -24 -25z"/>
<path d="M4506 2619 c-34 -27 -37 -86 -5 -115 19 -17 42 -19 282 -22 178 -2
269 1 288 8 52 22 62 103 16 135 -18 12 -69 15 -288 15 -254 0 -267 -1 -293
-21z"/>
<path d="M585 1510 c-121 -71 -228 -140 -239 -153 -31 -41 -5 -99 50 -113 19
-5 71 21 241 117 119 68 229 134 245 147 34 29 37 68 7 106 -36 46 -64 37
-304 -104z"/>
<path d="M4235 1615 c-31 -30 -32 -66 -2 -99 26 -30 454 -276 479 -276 24 0
66 40 73 71 5 19 0 33 -17 52 -33 37 -451 277 -483 277 -14 0 -37 -11 -50 -25z"/>
<path d="M1512 892 c-30 -30 -272 -460 -272 -483 0 -11 14 -34 30 -51 25 -24
36 -29 58 -23 15 3 34 14 44 23 30 31 268 456 268 480 0 57 -88 94 -128 54z"/>
<path d="M3506 889 c-46 -36 -37 -61 104 -304 72 -123 136 -228 143 -233 7 -6
24 -13 39 -17 22 -6 33 -1 58 23 16 17 30 39 30 49 0 21 -242 448 -272 481
-27 28 -67 28 -102 1z"/>
<path d="M2501 614 c-20 -26 -21 -39 -21 -296 l0 -269 25 -24 c43 -44 115 -23
130 38 3 12 5 138 3 279 -3 235 -5 258 -22 277 -29 32 -88 29 -115 -5z"/>
</g>
</svg>
