<?xml version="1.0" encoding="UTF-8"?>
<!DOCTYPE svg PUBLIC "-//W3C//DTD SVG 1.1//EN" "http://www.w3.org/Graphics/SVG/1.1/DTD/svg11.dtd">
<svg xmlns="http://www.w3.org/2000/svg" version="1.1" width="512px" height="512px" style="shape-rendering:geometricPrecision; text-rendering:geometricPrecision; image-rendering:optimizeQuality; fill-rule:evenodd; clip-rule:evenodd" xmlns:xlink="http://www.w3.org/1999/xlink">
<g><path style="opacity:0.997" fill="#59af99" d="M 232.5,-0.5 C 247.833,-0.5 263.167,-0.5 278.5,-0.5C 368.144,10.3879 435.644,54.7213 481,132.5C 497.695,163.971 507.861,197.304 511.5,232.5C 511.5,247.833 511.5,263.167 511.5,278.5C 500.612,368.144 456.279,435.644 378.5,481C 347.029,497.695 313.696,507.861 278.5,511.5C 263.167,511.5 247.833,511.5 232.5,511.5C 142.856,500.612 75.3562,456.279 30,378.5C 13.3053,347.029 3.1386,313.696 -0.5,278.5C -0.5,263.167 -0.5,247.833 -0.5,232.5C 10.3875,142.857 54.7208,75.3573 132.5,30C 163.971,13.3053 197.304,3.1386 232.5,-0.5 Z"/></g>
<g><path style="opacity:1" fill="#a3d2c7" d="M 350.5,146.5 C 287.167,146.5 223.833,146.5 160.5,146.5C 160.5,162.167 160.5,177.833 160.5,193.5C 183.5,193.5 206.5,193.5 229.5,193.5C 229.828,204.014 229.494,214.347 228.5,224.5C 228.5,214.5 228.5,204.5 228.5,194.5C 205.5,194.5 182.5,194.5 159.5,194.5C 159.5,178.167 159.5,161.833 159.5,145.5C 223.336,145.168 287.002,145.501 350.5,146.5 Z"/></g>
<g><path style="opacity:1" fill="#fdfefe" d="M 350.5,146.5 C 350.5,162.167 350.5,177.833 350.5,193.5C 327.833,193.5 305.167,193.5 282.5,193.5C 282.5,203.833 282.5,214.167 282.5,224.5C 307.894,225.177 332.894,228.677 357.5,235C 366.238,237.126 374.071,240.96 381,246.5C 383.816,249.58 384.149,252.913 382,256.5C 373.465,263.85 363.632,268.684 352.5,271C 329.271,276.01 305.938,279.177 282.5,280.5C 281.502,313.329 281.168,346.329 281.5,379.5C 264.167,379.5 246.833,379.5 229.5,379.5C 229.832,346.329 229.498,313.329 228.5,280.5C 203.529,279.169 178.862,275.669 154.5,270C 118.289,257.333 118.623,245.333 155.5,234C 179.429,227.809 203.762,224.642 228.5,224.5C 229.494,214.347 229.828,204.014 229.5,193.5C 206.5,193.5 183.5,193.5 160.5,193.5C 160.5,177.833 160.5,162.167 160.5,146.5C 223.833,146.5 287.167,146.5 350.5,146.5 Z"/></g>
<g><path style="opacity:1" fill="#5aaf9a" d="M 217.5,229.5 C 221.167,229.5 224.833,229.5 228.5,229.5C 228.179,241.081 228.512,252.581 229.5,264C 247.177,264.658 264.844,264.492 282.5,263.5C 282.5,252.167 282.5,240.833 282.5,229.5C 301.956,230.557 321.289,232.723 340.5,236C 348.029,237.732 355.362,240.065 362.5,243C 369.532,246.479 370.199,250.813 364.5,256C 359.997,258.39 355.331,260.39 350.5,262C 293.41,273.008 236.077,274.341 178.5,266C 167.239,264.519 156.573,261.186 146.5,256C 141.69,252.645 141.356,248.979 145.5,245C 150.385,241.703 155.718,239.369 161.5,238C 180.105,233.817 198.772,230.984 217.5,229.5 Z"/></g>
<g><path style="opacity:1" fill="#baded4" d="M 228.5,280.5 C 229.498,313.329 229.832,346.329 229.5,379.5C 246.833,379.5 264.167,379.5 281.5,379.5C 281.168,346.329 281.502,313.329 282.5,280.5C 282.5,313.833 282.5,347.167 282.5,380.5C 264.5,380.5 246.5,380.5 228.5,380.5C 228.5,347.167 228.5,313.833 228.5,280.5 Z"/></g>
</svg>
